<mxfile host="app.diagrams.net" modified="2023-09-11T16:25:00.594Z" agent="Mozilla/5.0 (Macintosh; Intel Mac OS X 10_15_7) AppleWebKit/537.36 (KHTML, like Gecko) Chrome/116.0.0.0 Safari/537.36" etag="r1o_kZ2kOSwodIvtHvJu" version="21.7.4" type="github">
  <diagram name="페이지-1" id="Tqh0WYOl26TlFhutuByS">
    <mxGraphModel dx="1359" dy="976" grid="1" gridSize="10" guides="1" tooltips="1" connect="1" arrows="1" fold="1" page="1" pageScale="1" pageWidth="827" pageHeight="1169" math="0" shadow="0">
      <root>
        <mxCell id="0" />
        <mxCell id="1" parent="0" />
        <mxCell id="o86PpJ6o3E2cX9OTUMZ0-2" value="Actor" style="shape=umlActor;verticalLabelPosition=bottom;verticalAlign=top;html=1;" vertex="1" parent="1">
          <mxGeometry x="5" y="120" width="30" height="60" as="geometry" />
        </mxCell>
        <mxCell id="o86PpJ6o3E2cX9OTUMZ0-16" style="rounded=0;orthogonalLoop=1;jettySize=auto;html=1;exitX=0;exitY=0.5;exitDx=0;exitDy=0;entryX=1;entryY=0.3333333333333333;entryDx=0;entryDy=0;entryPerimeter=0;endArrow=none;endFill=0;" edge="1" parent="1" source="o86PpJ6o3E2cX9OTUMZ0-4" target="o86PpJ6o3E2cX9OTUMZ0-2">
          <mxGeometry relative="1" as="geometry" />
        </mxCell>
        <mxCell id="o86PpJ6o3E2cX9OTUMZ0-4" value="회원 가입" style="rounded=1;whiteSpace=wrap;html=1;arcSize=40;fontColor=#000000;fillColor=#ffffc0;strokeColor=#ff0000;" vertex="1" parent="1">
          <mxGeometry x="145" y="130" width="120" height="40" as="geometry" />
        </mxCell>
        <mxCell id="o86PpJ6o3E2cX9OTUMZ0-19" style="edgeStyle=none;shape=connector;rounded=0;orthogonalLoop=1;jettySize=auto;html=1;exitX=0;exitY=0.5;exitDx=0;exitDy=0;labelBackgroundColor=default;strokeColor=default;fontFamily=Helvetica;fontSize=11;fontColor=default;endArrow=none;endFill=0;" edge="1" parent="1" source="o86PpJ6o3E2cX9OTUMZ0-6">
          <mxGeometry relative="1" as="geometry">
            <mxPoint x="35" y="140.0000000000001" as="targetPoint" />
          </mxGeometry>
        </mxCell>
        <mxCell id="o86PpJ6o3E2cX9OTUMZ0-23" style="edgeStyle=none;shape=connector;rounded=0;orthogonalLoop=1;jettySize=auto;html=1;exitX=1;exitY=0.5;exitDx=0;exitDy=0;entryX=0.5;entryY=1;entryDx=0;entryDy=0;labelBackgroundColor=default;strokeColor=default;fontFamily=Helvetica;fontSize=11;fontColor=default;endArrow=classic;endFill=1;dashed=1;" edge="1" parent="1" source="o86PpJ6o3E2cX9OTUMZ0-6" target="o86PpJ6o3E2cX9OTUMZ0-9">
          <mxGeometry relative="1" as="geometry" />
        </mxCell>
        <mxCell id="o86PpJ6o3E2cX9OTUMZ0-6" value="게시판 보기" style="rounded=1;whiteSpace=wrap;html=1;arcSize=40;fontColor=#000000;fillColor=#ffffc0;strokeColor=#ff0000;" vertex="1" parent="1">
          <mxGeometry x="145" y="240" width="120" height="40" as="geometry" />
        </mxCell>
        <mxCell id="o86PpJ6o3E2cX9OTUMZ0-20" style="edgeStyle=none;shape=connector;rounded=0;orthogonalLoop=1;jettySize=auto;html=1;exitX=0;exitY=0.5;exitDx=0;exitDy=0;labelBackgroundColor=default;strokeColor=default;fontFamily=Helvetica;fontSize=11;fontColor=default;endArrow=none;endFill=0;" edge="1" parent="1" source="o86PpJ6o3E2cX9OTUMZ0-7">
          <mxGeometry relative="1" as="geometry">
            <mxPoint x="35" y="140.0000000000001" as="targetPoint" />
          </mxGeometry>
        </mxCell>
        <mxCell id="o86PpJ6o3E2cX9OTUMZ0-7" value="게시글 보기" style="rounded=1;whiteSpace=wrap;html=1;arcSize=40;fontColor=#000000;fillColor=#ffffc0;strokeColor=#ff0000;" vertex="1" parent="1">
          <mxGeometry x="145" y="375" width="120" height="40" as="geometry" />
        </mxCell>
        <mxCell id="o86PpJ6o3E2cX9OTUMZ0-8" value="게시판 서비스" style="shape=umlFrame;whiteSpace=wrap;html=1;pointerEvents=0;width=100;height=30;" vertex="1" parent="1">
          <mxGeometry x="115" y="10" width="570" height="520" as="geometry" />
        </mxCell>
        <mxCell id="o86PpJ6o3E2cX9OTUMZ0-21" value="&amp;lt;&amp;lt; include &amp;gt;&amp;gt;" style="edgeStyle=none;shape=connector;rounded=0;orthogonalLoop=1;jettySize=auto;html=1;exitX=1;exitY=0.5;exitDx=0;exitDy=0;labelBackgroundColor=default;strokeColor=default;fontFamily=Helvetica;fontSize=11;fontColor=default;endArrow=classic;endFill=1;dashed=1;" edge="1" parent="1" source="o86PpJ6o3E2cX9OTUMZ0-9" target="o86PpJ6o3E2cX9OTUMZ0-10">
          <mxGeometry relative="1" as="geometry" />
        </mxCell>
        <mxCell id="o86PpJ6o3E2cX9OTUMZ0-22" value="&amp;lt;&amp;lt; extend &amp;gt;&amp;gt;" style="edgeStyle=none;shape=connector;rounded=0;orthogonalLoop=1;jettySize=auto;html=1;exitX=1;exitY=0.5;exitDx=0;exitDy=0;entryX=0;entryY=0.5;entryDx=0;entryDy=0;labelBackgroundColor=default;strokeColor=default;fontFamily=Helvetica;fontSize=11;fontColor=default;endArrow=none;endFill=0;startArrow=classic;startFill=1;dashed=1;" edge="1" parent="1" source="o86PpJ6o3E2cX9OTUMZ0-9" target="o86PpJ6o3E2cX9OTUMZ0-11">
          <mxGeometry relative="1" as="geometry" />
        </mxCell>
        <mxCell id="o86PpJ6o3E2cX9OTUMZ0-9" value="회원 로그인" style="rounded=1;whiteSpace=wrap;html=1;arcSize=40;fontColor=#000000;fillColor=#ffffc0;strokeColor=#ff0000;" vertex="1" parent="1">
          <mxGeometry x="275" y="30" width="120" height="40" as="geometry" />
        </mxCell>
        <mxCell id="o86PpJ6o3E2cX9OTUMZ0-10" value="인증" style="rounded=1;whiteSpace=wrap;html=1;arcSize=40;fontColor=#000000;fillColor=#ffffc0;strokeColor=#ff0000;" vertex="1" parent="1">
          <mxGeometry x="535" y="30" width="120" height="40" as="geometry" />
        </mxCell>
        <mxCell id="o86PpJ6o3E2cX9OTUMZ0-11" value="로그인 실패" style="rounded=1;whiteSpace=wrap;html=1;arcSize=40;fontColor=#000000;fillColor=#ffffc0;strokeColor=#ff0000;" vertex="1" parent="1">
          <mxGeometry x="535" y="130" width="120" height="40" as="geometry" />
        </mxCell>
        <mxCell id="o86PpJ6o3E2cX9OTUMZ0-25" style="edgeStyle=none;shape=connector;rounded=0;orthogonalLoop=1;jettySize=auto;html=1;exitX=0;exitY=0.5;exitDx=0;exitDy=0;entryX=1;entryY=0.5;entryDx=0;entryDy=0;dashed=1;labelBackgroundColor=default;strokeColor=default;fontFamily=Helvetica;fontSize=11;fontColor=default;endArrow=classic;endFill=1;" edge="1" parent="1" source="o86PpJ6o3E2cX9OTUMZ0-12" target="o86PpJ6o3E2cX9OTUMZ0-6">
          <mxGeometry relative="1" as="geometry" />
        </mxCell>
        <mxCell id="o86PpJ6o3E2cX9OTUMZ0-12" value="게시판 정렬" style="rounded=1;whiteSpace=wrap;html=1;arcSize=40;fontColor=#000000;fillColor=#ffffc0;strokeColor=#ff0000;" vertex="1" parent="1">
          <mxGeometry x="379" y="190" width="120" height="40" as="geometry" />
        </mxCell>
        <mxCell id="o86PpJ6o3E2cX9OTUMZ0-26" style="edgeStyle=none;shape=connector;rounded=0;orthogonalLoop=1;jettySize=auto;html=1;exitX=0;exitY=0.5;exitDx=0;exitDy=0;dashed=1;labelBackgroundColor=default;strokeColor=default;fontFamily=Helvetica;fontSize=11;fontColor=default;endArrow=classic;endFill=1;entryX=1;entryY=0.5;entryDx=0;entryDy=0;" edge="1" parent="1" source="o86PpJ6o3E2cX9OTUMZ0-13" target="o86PpJ6o3E2cX9OTUMZ0-6">
          <mxGeometry relative="1" as="geometry">
            <mxPoint x="295" y="260" as="targetPoint" />
          </mxGeometry>
        </mxCell>
        <mxCell id="o86PpJ6o3E2cX9OTUMZ0-13" value="게시판&amp;nbsp;검색" style="rounded=1;whiteSpace=wrap;html=1;arcSize=40;fontColor=#000000;fillColor=#ffffc0;strokeColor=#ff0000;" vertex="1" parent="1">
          <mxGeometry x="379" y="280" width="120" height="40" as="geometry" />
        </mxCell>
        <mxCell id="o86PpJ6o3E2cX9OTUMZ0-27" style="edgeStyle=none;shape=connector;rounded=0;orthogonalLoop=1;jettySize=auto;html=1;exitX=0;exitY=0.5;exitDx=0;exitDy=0;entryX=1;entryY=0.5;entryDx=0;entryDy=0;dashed=1;labelBackgroundColor=default;strokeColor=default;fontFamily=Helvetica;fontSize=11;fontColor=default;endArrow=classic;endFill=1;" edge="1" parent="1" source="o86PpJ6o3E2cX9OTUMZ0-14" target="o86PpJ6o3E2cX9OTUMZ0-7">
          <mxGeometry relative="1" as="geometry" />
        </mxCell>
        <mxCell id="o86PpJ6o3E2cX9OTUMZ0-14" value="게시글 쓰기, 수정, 삭제" style="rounded=1;whiteSpace=wrap;html=1;arcSize=40;fontColor=#000000;fillColor=#ffffc0;strokeColor=#ff0000;" vertex="1" parent="1">
          <mxGeometry x="379" y="370" width="120" height="40" as="geometry" />
        </mxCell>
        <mxCell id="o86PpJ6o3E2cX9OTUMZ0-28" style="edgeStyle=none;shape=connector;rounded=0;orthogonalLoop=1;jettySize=auto;html=1;exitX=0;exitY=0.5;exitDx=0;exitDy=0;dashed=1;labelBackgroundColor=default;strokeColor=default;fontFamily=Helvetica;fontSize=11;fontColor=default;endArrow=classic;endFill=1;entryX=1;entryY=0.5;entryDx=0;entryDy=0;" edge="1" parent="1" source="o86PpJ6o3E2cX9OTUMZ0-15" target="o86PpJ6o3E2cX9OTUMZ0-7">
          <mxGeometry relative="1" as="geometry">
            <mxPoint x="295" y="400" as="targetPoint" />
          </mxGeometry>
        </mxCell>
        <mxCell id="o86PpJ6o3E2cX9OTUMZ0-15" value="댓글 보기, 쓰기, 수정,&lt;br&gt;삭제" style="rounded=1;whiteSpace=wrap;html=1;arcSize=40;fontColor=#000000;fillColor=#ffffc0;strokeColor=#ff0000;" vertex="1" parent="1">
          <mxGeometry x="379" y="460" width="120" height="40" as="geometry" />
        </mxCell>
        <mxCell id="o86PpJ6o3E2cX9OTUMZ0-17" style="rounded=0;orthogonalLoop=1;jettySize=auto;html=1;exitX=0;exitY=0.5;exitDx=0;exitDy=0;endArrow=none;endFill=0;" edge="1" parent="1" source="o86PpJ6o3E2cX9OTUMZ0-9">
          <mxGeometry relative="1" as="geometry">
            <mxPoint x="165" y="80" as="sourcePoint" />
            <mxPoint x="35" y="140" as="targetPoint" />
          </mxGeometry>
        </mxCell>
        <mxCell id="o86PpJ6o3E2cX9OTUMZ0-24" style="edgeStyle=none;shape=connector;rounded=0;orthogonalLoop=1;jettySize=auto;html=1;exitX=1;exitY=0.5;exitDx=0;exitDy=0;entryX=0.5;entryY=1;entryDx=0;entryDy=0;labelBackgroundColor=default;strokeColor=default;fontFamily=Helvetica;fontSize=11;fontColor=default;endArrow=classic;endFill=1;dashed=1;" edge="1" parent="1" source="o86PpJ6o3E2cX9OTUMZ0-7" target="o86PpJ6o3E2cX9OTUMZ0-9">
          <mxGeometry relative="1" as="geometry">
            <mxPoint x="305" y="270" as="sourcePoint" />
            <mxPoint x="385" y="90" as="targetPoint" />
          </mxGeometry>
        </mxCell>
        <mxCell id="o86PpJ6o3E2cX9OTUMZ0-31" style="edgeStyle=none;shape=connector;rounded=0;orthogonalLoop=1;jettySize=auto;html=1;exitX=0;exitY=0.5;exitDx=0;exitDy=0;entryX=1;entryY=0.5;entryDx=0;entryDy=0;labelBackgroundColor=default;strokeColor=default;fontFamily=Helvetica;fontSize=11;fontColor=default;endArrow=none;endFill=0;" edge="1" parent="1" source="o86PpJ6o3E2cX9OTUMZ0-29" target="o86PpJ6o3E2cX9OTUMZ0-10">
          <mxGeometry relative="1" as="geometry" />
        </mxCell>
        <mxCell id="o86PpJ6o3E2cX9OTUMZ0-32" style="edgeStyle=none;shape=connector;rounded=0;orthogonalLoop=1;jettySize=auto;html=1;exitX=0;exitY=0.5;exitDx=0;exitDy=0;entryX=1;entryY=0.5;entryDx=0;entryDy=0;labelBackgroundColor=default;strokeColor=default;fontFamily=Helvetica;fontSize=11;fontColor=default;endArrow=none;endFill=0;" edge="1" parent="1" source="o86PpJ6o3E2cX9OTUMZ0-29" target="o86PpJ6o3E2cX9OTUMZ0-6">
          <mxGeometry relative="1" as="geometry">
            <Array as="points">
              <mxPoint x="505" y="240" />
            </Array>
          </mxGeometry>
        </mxCell>
        <mxCell id="o86PpJ6o3E2cX9OTUMZ0-33" style="edgeStyle=none;shape=connector;rounded=0;orthogonalLoop=1;jettySize=auto;html=1;exitX=0;exitY=0.5;exitDx=0;exitDy=0;entryX=1;entryY=0.5;entryDx=0;entryDy=0;labelBackgroundColor=default;strokeColor=default;fontFamily=Helvetica;fontSize=11;fontColor=default;endArrow=none;endFill=0;" edge="1" parent="1" source="o86PpJ6o3E2cX9OTUMZ0-29" target="o86PpJ6o3E2cX9OTUMZ0-7">
          <mxGeometry relative="1" as="geometry">
            <Array as="points">
              <mxPoint x="515" y="320" />
            </Array>
          </mxGeometry>
        </mxCell>
        <mxCell id="o86PpJ6o3E2cX9OTUMZ0-34" style="edgeStyle=none;shape=connector;rounded=0;orthogonalLoop=1;jettySize=auto;html=1;exitX=0;exitY=0.5;exitDx=0;exitDy=0;entryX=1;entryY=0.5;entryDx=0;entryDy=0;labelBackgroundColor=default;strokeColor=default;fontFamily=Helvetica;fontSize=11;fontColor=default;endArrow=none;endFill=0;" edge="1" parent="1" source="o86PpJ6o3E2cX9OTUMZ0-29" target="o86PpJ6o3E2cX9OTUMZ0-14">
          <mxGeometry relative="1" as="geometry" />
        </mxCell>
        <mxCell id="o86PpJ6o3E2cX9OTUMZ0-35" style="edgeStyle=none;shape=connector;rounded=0;orthogonalLoop=1;jettySize=auto;html=1;exitX=0;exitY=0.5;exitDx=0;exitDy=0;entryX=1;entryY=0.5;entryDx=0;entryDy=0;labelBackgroundColor=default;strokeColor=default;fontFamily=Helvetica;fontSize=11;fontColor=default;endArrow=none;endFill=0;" edge="1" parent="1" source="o86PpJ6o3E2cX9OTUMZ0-29" target="o86PpJ6o3E2cX9OTUMZ0-15">
          <mxGeometry relative="1" as="geometry" />
        </mxCell>
        <mxCell id="o86PpJ6o3E2cX9OTUMZ0-29" value="DB" style="html=1;dropTarget=0;whiteSpace=wrap;fontFamily=Helvetica;fontSize=11;fontColor=default;" vertex="1" parent="1">
          <mxGeometry x="702" y="105" width="120" height="85" as="geometry" />
        </mxCell>
      </root>
    </mxGraphModel>
  </diagram>
</mxfile>
